<?xml version="1.0" encoding="UTF-8" standalone="no"?>
<!-- Created with Inkscape (http://www.inkscape.org/) -->

<svg
   width="244.21042mm"
   height="81.491669mm"
   viewBox="0 0 244.21042 81.491669"
   version="1.1"
   id="svg1"
   xml:space="preserve"
   inkscape:version="1.4.2 (f4327f4, 2025-05-13)"
   sodipodi:docname="logo-nombre-conexia.svg"
   xmlns:inkscape="http://www.inkscape.org/namespaces/inkscape"
   xmlns:sodipodi="http://sodipodi.sourceforge.net/DTD/sodipodi-0.dtd"
   xmlns="http://www.w3.org/2000/svg"
   xmlns:svg="http://www.w3.org/2000/svg"><sodipodi:namedview
     id="namedview1"
     pagecolor="#ffffff"
     bordercolor="#000000"
     borderopacity="0.25"
     inkscape:showpageshadow="2"
     inkscape:pageopacity="0.0"
     inkscape:pagecheckerboard="0"
     inkscape:deskcolor="#d1d1d1"
     inkscape:document-units="mm"
     inkscape:zoom="1.4378367"
     inkscape:cx="362.00217"
     inkscape:cy="103.28016"
     inkscape:window-width="1920"
     inkscape:window-height="1009"
     inkscape:window-x="-8"
     inkscape:window-y="-8"
     inkscape:window-maximized="1"
     inkscape:current-layer="layer1" /><defs
     id="defs1" /><g
     inkscape:label="Layer 1"
     inkscape:groupmode="layer"
     id="layer1"
     transform="translate(29.005468,-65.962845)"><path
       style="fill:#1069b5"
       d="m 4.7346839,138.74125 c -1.9500753,-0.42313 -4.41570612,-1.52368 -6.5842962,-2.93893 -0.8360648,-0.54563 -4.7150543,-4.15327 -8.6199777,-8.01697 -8.888506,-8.79469 -10.243497,-10.67087 -11.761364,-16.28534 -0.302547,-1.11909 -0.423538,-2.64141 -0.410058,-5.15937 0.02945,-5.50182 1.160054,-8.963728 4.294524,-13.149868 2.166877,-2.89391 15.0392343,-15.543801 17.276837,-16.978257 4.399529,-2.820399 10.4208138,-3.668544 15.111772,-2.128611 0.962288,0.315897 1.950016,0.795798 2.194949,1.066446 0.424766,0.469361 0.330541,0.60181 -2.040108,2.867712 l -2.485443,2.375623 -2.1272232,0.009 c -2.4851886,0.0104 -4.79895,0.55241 -6.4717341,1.51604 -1.6239366,0.935497 -14.8887037,14.105977 -16.1639617,16.049067 -2.99474,4.563038 -3.323294,10.219618 -0.885195,15.240018 0.895088,1.84312 1.541434,2.56649 8.4140501,9.41676 8.1625368,8.13601 9.046198,8.80368 12.4320168,9.39329 0.995434,0.17335 2.3640549,0.25148 3.0413809,0.17362 0.7903602,-0.0908 1.5194832,-0.006 2.0354442,0.23662 1.21246,0.57034 4.726538,4.20967 4.538341,4.70011 -0.605376,1.57758 -7.5651912,2.52985 -11.7899541,1.61314 z m 20.0737101,-0.11796 c -1.091406,-0.29052 -2.938848,-0.99746 -4.105427,-1.57098 -2.442628,-1.20086 -3.886265,-2.46387 -12.3138528,-10.77318 -3.1203851,-3.0766 -6.0568231,-5.91192 -6.5254178,-6.30073 -1.49024382,-1.23649 -4.102741,-4.71003 -4.9837368,-6.6263 -1.0745808,-2.33735 -1.4403146,-4.07671 -1.4403146,-6.84987 0,-4.4369 1.5350641,-8.255958 4.82704828,-12.009148 C 2.8945547,91.497062 17.240506,77.553718 18.796973,76.48284 c 4.698698,-3.232788 10.999877,-4.084121 16.414644,-2.21773 3.029799,1.044327 4.548282,2.137369 8.808389,6.340495 4.495758,4.435627 5.211889,5.637117 5.354996,8.984367 0.110003,2.57297 -0.35781,4.24931 -1.662804,5.95841 -2.26973,2.97258 -6.925097,4.603988 -11.231289,3.93586 -2.498151,-0.3876 -4.835684,-1.35234 -6.74343,-2.78312 -2.499148,-1.87432 -9.145396,-8.32449 -9.328251,-9.05304 -0.129939,-0.51772 0.027,-0.85937 0.727687,-1.58413 1.352817,-1.39931 3.528224,-3.00664 4.069269,-3.00664 0.264661,0 2.277725,1.76215 4.473477,3.91589 2.469897,2.42263 4.449823,4.13632 5.192146,4.49397 1.449796,0.6985 3.755056,1.16776 4.714091,0.95961 2.031267,-0.44088 2.684997,-1.01396 2.684997,-2.35376 0,-1.169 -0.638993,-2.03453 -3.64888,-4.94245 -2.142603,-2.07002 -3.373197,-3.034277 -4.714338,-3.694017 -1.728162,-0.85012 -1.954154,-0.89278 -4.729479,-0.89278 -2.804337,0 -2.989664,0.0361 -4.89897,0.95441 -1.856126,0.892727 -2.534929,1.508317 -10.503001,9.524997 -4.6852442,4.71382 -8.7668604,8.89176 -9.0702588,9.284298 -2.2370398,2.89434 -2.6567335,7.34432 -1.0057018,10.66337 0.5742728,1.15445 15.0235606,15.85367 17.9565846,18.26717 0.958786,0.78896 2.447068,1.7641 3.307292,2.16698 1.381864,0.64719 1.872228,0.73251 4.209876,0.73251 2.440381,0 2.787934,-0.0673 4.475814,-0.8666 1.492929,-0.70699 2.455379,-1.48737 5.22552,-4.23701 3.125393,-3.10226 3.395542,-3.44788 3.395542,-4.34417 0,-0.64242 -0.212938,-1.2213 -0.625812,-1.7013 -0.535403,-0.62244 -0.870462,-0.74313 -2.319304,-0.83538 -3.348226,-0.2132 -4.322623,0.33688 -9.86366,5.56832 -2.119324,2.00091 -3.993219,3.63802 -4.164211,3.63802 -0.539902,0 -2.693423,-1.51473 -3.889886,-2.73605 -0.85313,-0.87085 -1.108298,-1.31117 -0.984982,-1.6997 0.223738,-0.70494 8.077803,-8.0294 9.924056,-9.25487 5.23993,-3.47807 12.213523,-3.43082 16.151132,0.10943 1.737108,1.56181 2.557736,2.99758 2.886913,5.05094 0.633538,3.95192 -0.39118,6.12289 -5.054436,10.70835 -5.80213,5.70534 -8.9507,7.32303 -14.627519,7.5154 -2.303371,0.078 -3.324311,-0.0115 -4.894792,-0.4296 z m 43.809727,-20.92638 c -3.604299,-0.543 -6.675079,-2.74496 -8.23294,-5.90359 -3.38896,-6.87126 -0.28718,-14.589518 6.717514,-16.715418 1.655362,-0.50239 5.162378,-0.47872 6.936323,0.0468 4.048069,1.19927 5.98191,3.69647 4.109682,5.306888 -1.000856,0.8609 -1.777632,0.77568 -3.744932,-0.41086 -1.964832,-1.185038 -3.470471,-1.493438 -5.294946,-1.084568 -4.26588,0.956 -6.531421,5.469128 -5.023874,10.007928 1.372276,4.13153 5.910497,5.81312 10.109497,3.74596 2.395623,-1.17936 3.608777,-2.81733 5.665384,-7.64924 2.322094,-5.455648 3.00349,-6.509988 5.379306,-8.323488 1.934717,-1.47681 4.350926,-2.0995 7.669856,-1.97664 2.513508,0.093 2.878875,0.17754 4.735771,1.09527 4.639438,2.29294 6.844398,7.448768 5.631818,13.168858 -0.50644,2.38903 -1.3355,4.03706 -2.77361,5.51352 -2.347903,2.4105 -6.244236,3.64777 -10.042043,3.18883 -3.06657,-0.37058 -7.179615,-2.93637 -7.179615,-4.47877 0,-0.75273 1.514415,-4.37423 1.829187,-4.37423 0.15042,0 0.663592,0.65057 1.140381,1.44571 1.268034,2.11469 2.856524,3.02426 5.490759,3.14402 2.310321,0.10503 3.793439,-0.42111 5.277761,-1.87231 1.094986,-1.07055 1.47311,-1.82807 1.867441,-3.74116 0.740369,-3.59187 -0.830618,-7.04251 -3.825699,-8.403078 -1.66291,-0.7554 -4.446517,-0.66959 -6.172047,0.19028 -1.809598,0.901758 -2.724581,2.065248 -4.029193,5.123498 -2.924584,6.85576 -4.881704,9.72635 -7.739748,11.35222 -2.504526,1.42476 -5.694785,2.02646 -8.502033,1.60355 z m 39.606279,-0.29318 c -1.47409,-0.39216 -1.5315,-0.71194 -1.48745,-8.28497 0.0481,-8.26395 0.23233,-9.04592 2.71695,-11.530528 2.19072,-2.19073 3.76284,-2.74333 7.82637,-2.75098 2.74947,-0.005 3.34948,0.0745 4.47684,0.59439 2.09155,0.96456 3.47588,2.27189 4.40571,4.16063 0.74723,1.517838 0.86699,2.089168 1.09386,5.218598 0.30765,4.24377 0.15087,10.97035 -0.27422,11.76463 -0.44093,0.82389 -1.83928,1.22704 -2.93326,0.84568 -1.46971,-0.51234 -1.60955,-1.23371 -1.60955,-8.30242 0,-6.51418 -0.1311,-7.41373 -1.26687,-8.69278 -1.71377,-1.929978 -6.19129,-1.980118 -8.21352,-0.092 -1.41942,1.32531 -1.4789,1.663 -1.6266,9.2353 -0.0872,4.4731 -0.24142,7.16847 -0.42024,7.34681 -0.48725,0.48597 -1.79947,0.72401 -2.68802,0.48762 z m 29.9545,-0.16193 c -3.17836,-1.09905 -5.95052,-3.59117 -7.05019,-6.33798 -0.52022,-1.29944 -0.60947,-2.00125 -0.61399,-4.82776 -0.005,-3.17918 0.0276,-3.37674 0.84384,-5.09992 2.00706,-4.237188 6.079,-6.518458 11.11475,-6.226938 5.15204,0.29824 8.83517,3.78997 9.58301,9.084998 0.28333,2.0061 0.16987,2.90453 -0.45854,3.63092 -0.36509,0.42202 -1.11227,0.46302 -8.43765,0.46302 -6.65318,0 -8.06162,0.0639 -8.17954,0.37122 -0.38122,0.99345 2.13435,4.03386 3.95859,4.78451 1.32374,0.5447 3.37147,0.72053 4.76203,0.4089 1.19113,-0.26694 1.81385,-0.52875 4.0599,-1.70689 0.7656,-0.40159 0.92233,-0.40587 1.62159,-0.0443 1.78323,0.92215 1.43864,2.87513 -0.75121,4.25752 -2.68969,1.69793 -7.48675,2.26823 -10.45259,1.24267 z m 9.39616,-13.89207 c 0,-1.00595 -1.44808,-2.9905 -2.73048,-3.742028 -3.22805,-1.89176 -7.75282,-0.54364 -9.46952,2.821358 -0.286,0.56062 -0.44895,1.13429 -0.3621,1.27482 0.0943,0.15253 2.65753,0.25551 6.36001,0.25551 h 6.20209 z m 22.35729,14.18699 c -0.79703,-0.20817 -1.16807,-0.60889 -4.00313,-4.3233 -1.69139,-2.21601 -2.76501,-3.40021 -3.0473,-3.36118 -0.23972,0.0331 -1.73279,1.72715 -3.31795,3.76444 l -2.8821,3.70417 -1.40733,0.081 c -2.17215,0.12499 -3.03823,-1.02391 -1.96133,-2.60179 0.59341,-0.86947 4.76115,-6.24417 5.6949,-7.34412 0.40578,-0.478 0.73779,-1.05215 0.73779,-1.27587 0,-0.22373 -1.54782,-2.44074 -3.43959,-4.92671 -1.89177,-2.485958 -3.43958,-4.721088 -3.43958,-4.966968 0,-1.08577 1.98214,-1.73706 3.66299,-1.20358 0.31277,0.0993 1.83401,1.83946 3.38052,3.8671 1.54652,2.027618 2.90679,3.686588 3.02283,3.686588 0.11605,0 1.45792,-1.58235 2.98194,-3.516328 1.52403,-1.93399 2.95649,-3.67032 3.18324,-3.85851 0.22676,-0.18819 0.97022,-0.34217 1.65213,-0.34217 1.49934,0 2.38441,0.69461 2.13768,1.67766 -0.0861,0.34285 -1.64686,2.52657 -3.46846,4.852708 -1.82161,2.32614 -3.31464,4.38827 -3.31786,4.58249 -0.003,0.19423 1.33987,2.09923 2.98462,4.23334 3.76053,4.87937 3.8887,5.06889 3.8887,5.75014 0,1.07076 -1.63573,1.8884 -3.04271,1.52092 z m 7.36745,-0.20284 c -0.45906,-0.19972 -0.92548,-0.64154 -1.0365,-0.98183 -0.11102,-0.34029 -0.20689,-5.0682 -0.21306,-10.50649 l -0.0112,-9.887768 0.73172,-0.62941 c 0.99008,-0.85163 2.36466,-0.8431 3.22779,0.02 l 0.64943,0.64943 v 10.044558 c 0,5.5245 -0.074,10.23729 -0.16435,10.47285 -0.17607,0.45884 -1.4383,1.2092 -2.00532,1.19213 -0.18913,-0.006 -0.71946,-0.17377 -1.17851,-0.37349 z m 14.9151,0.10963 c -5.48389,-1.37129 -8.83578,-7.60767 -7.49987,-13.95393 0.53274,-2.53076 1.52026,-4.284068 3.38563,-6.011068 2.27989,-2.11078 3.8168,-2.63384 7.76086,-2.64126 3.02607,-0.006 3.25844,0.0335 4.95388,0.83671 3.21762,1.52425 5.26692,3.98915 6.11855,7.359388 0.49661,1.9653 0.83545,8.62699 0.57836,11.37057 -0.23281,2.48445 -0.66465,3.04922 -2.3315,3.04922 -1.38403,0 -2.20941,-0.53707 -2.44019,-1.58783 -0.21051,-0.95842 -0.44374,-0.983 -1.53894,-0.16218 -1.91605,1.43602 -3.10898,1.84453 -5.60474,1.9193 -1.30969,0.0392 -2.83161,-0.0413 -3.38204,-0.17892 z m 6.30975,-4.45929 c 2.67708,-1.21593 4.12866,-3.53535 4.14287,-6.61972 0.011,-2.38721 -0.4824,-3.8176 -1.83624,-5.32341 -3.38545,-3.765418 -9.48705,-2.578848 -11.31205,2.19984 -0.64107,1.67861 -0.47116,5.14874 0.3279,6.69664 0.63007,1.22056 2.12949,2.64095 3.34799,3.17153 1.20646,0.52533 4.04438,0.45883 5.32953,-0.12488 z M 176.61843,91.532942 c -2.21788,-1.74459 -1.0704,-5.30063 1.71044,-5.30063 2.08118,0 3.51789,2.42959 2.55273,4.31687 -0.77409,1.51366 -2.95092,2.01598 -4.26317,0.98376 z"
       id="path2" /></g></svg>
